%
M48
M72
T01C0.0200
T02C0.0320
T03C0.0354
T04C0.0394
T05C0.0400
T06C0.1260
%
T01
X10100Y8600
X12600Y7350
X13600Y5100
X10100Y11600
T02
X11600Y9600
X11600Y8600
X11600Y7600
X11600Y6600
X11600Y5600
X11600Y4600
X11600Y3600
X11600Y2600
X14600Y2600
X14600Y3600
X14600Y4600
X14600Y5600
X14600Y6600
X14600Y7600
X14600Y8600
X14600Y9600
X13600Y11100
X12600Y11100
X9600Y9100
X9600Y8100
X9600Y7100
X6600Y7100
X5600Y7100
X5600Y8100
X6600Y8100
X6600Y9100
X5600Y9100
X2600Y9100
X2600Y8100
X2600Y7100
T03
X4100Y3600
X5100Y3600
X6100Y3600
X6100Y2600
X5100Y2600
X4100Y2600
X4100Y12600
X5100Y12600
X6100Y12600
X6100Y13600
X5100Y13600
X4100Y13600
T04
X10350Y13350
X11350Y13350
X12350Y13350
T05
X13850Y13350
X14850Y13350
X16350Y13350
X17350Y13350
X16600Y10850
X16600Y9850
X16600Y8850
X16600Y7850
X16600Y6850
X16600Y5850
X16600Y4850
X16600Y3850
T06
X1100Y1100
X1100Y14850
X18100Y14850
X18100Y1100
M30
