G75*
G70*
%OFA0B0*%
%FSLAX24Y24*%
%IPPOS*%
%LPD*%
%AMOC8*
5,1,8,0,0,1.08239X$1,22.5*
%
%ADD10C,0.0000*%
D10*
X001100Y000100D02*
X018100Y000100D01*
X017470Y001100D02*
X017472Y001150D01*
X017478Y001200D01*
X017488Y001249D01*
X017502Y001297D01*
X017519Y001344D01*
X017540Y001389D01*
X017565Y001433D01*
X017593Y001474D01*
X017625Y001513D01*
X017659Y001550D01*
X017696Y001584D01*
X017736Y001614D01*
X017778Y001641D01*
X017822Y001665D01*
X017868Y001686D01*
X017915Y001702D01*
X017963Y001715D01*
X018013Y001724D01*
X018062Y001729D01*
X018113Y001730D01*
X018163Y001727D01*
X018212Y001720D01*
X018261Y001709D01*
X018309Y001694D01*
X018355Y001676D01*
X018400Y001654D01*
X018443Y001628D01*
X018484Y001599D01*
X018523Y001567D01*
X018559Y001532D01*
X018591Y001494D01*
X018621Y001454D01*
X018648Y001411D01*
X018671Y001367D01*
X018690Y001321D01*
X018706Y001273D01*
X018718Y001224D01*
X018726Y001175D01*
X018730Y001125D01*
X018730Y001075D01*
X018726Y001025D01*
X018718Y000976D01*
X018706Y000927D01*
X018690Y000879D01*
X018671Y000833D01*
X018648Y000789D01*
X018621Y000746D01*
X018591Y000706D01*
X018559Y000668D01*
X018523Y000633D01*
X018484Y000601D01*
X018443Y000572D01*
X018400Y000546D01*
X018355Y000524D01*
X018309Y000506D01*
X018261Y000491D01*
X018212Y000480D01*
X018163Y000473D01*
X018113Y000470D01*
X018062Y000471D01*
X018013Y000476D01*
X017963Y000485D01*
X017915Y000498D01*
X017868Y000514D01*
X017822Y000535D01*
X017778Y000559D01*
X017736Y000586D01*
X017696Y000616D01*
X017659Y000650D01*
X017625Y000687D01*
X017593Y000726D01*
X017565Y000767D01*
X017540Y000811D01*
X017519Y000856D01*
X017502Y000903D01*
X017488Y000951D01*
X017478Y001000D01*
X017472Y001050D01*
X017470Y001100D01*
X018100Y000100D02*
X018160Y000102D01*
X018221Y000107D01*
X018280Y000116D01*
X018339Y000129D01*
X018398Y000145D01*
X018455Y000165D01*
X018510Y000188D01*
X018565Y000215D01*
X018617Y000244D01*
X018668Y000277D01*
X018717Y000313D01*
X018763Y000351D01*
X018807Y000393D01*
X018849Y000437D01*
X018887Y000483D01*
X018923Y000532D01*
X018956Y000583D01*
X018985Y000635D01*
X019012Y000690D01*
X019035Y000745D01*
X019055Y000802D01*
X019071Y000861D01*
X019084Y000920D01*
X019093Y000979D01*
X019098Y001040D01*
X019100Y001100D01*
X019100Y014850D01*
X017470Y014850D02*
X017472Y014900D01*
X017478Y014950D01*
X017488Y014999D01*
X017502Y015047D01*
X017519Y015094D01*
X017540Y015139D01*
X017565Y015183D01*
X017593Y015224D01*
X017625Y015263D01*
X017659Y015300D01*
X017696Y015334D01*
X017736Y015364D01*
X017778Y015391D01*
X017822Y015415D01*
X017868Y015436D01*
X017915Y015452D01*
X017963Y015465D01*
X018013Y015474D01*
X018062Y015479D01*
X018113Y015480D01*
X018163Y015477D01*
X018212Y015470D01*
X018261Y015459D01*
X018309Y015444D01*
X018355Y015426D01*
X018400Y015404D01*
X018443Y015378D01*
X018484Y015349D01*
X018523Y015317D01*
X018559Y015282D01*
X018591Y015244D01*
X018621Y015204D01*
X018648Y015161D01*
X018671Y015117D01*
X018690Y015071D01*
X018706Y015023D01*
X018718Y014974D01*
X018726Y014925D01*
X018730Y014875D01*
X018730Y014825D01*
X018726Y014775D01*
X018718Y014726D01*
X018706Y014677D01*
X018690Y014629D01*
X018671Y014583D01*
X018648Y014539D01*
X018621Y014496D01*
X018591Y014456D01*
X018559Y014418D01*
X018523Y014383D01*
X018484Y014351D01*
X018443Y014322D01*
X018400Y014296D01*
X018355Y014274D01*
X018309Y014256D01*
X018261Y014241D01*
X018212Y014230D01*
X018163Y014223D01*
X018113Y014220D01*
X018062Y014221D01*
X018013Y014226D01*
X017963Y014235D01*
X017915Y014248D01*
X017868Y014264D01*
X017822Y014285D01*
X017778Y014309D01*
X017736Y014336D01*
X017696Y014366D01*
X017659Y014400D01*
X017625Y014437D01*
X017593Y014476D01*
X017565Y014517D01*
X017540Y014561D01*
X017519Y014606D01*
X017502Y014653D01*
X017488Y014701D01*
X017478Y014750D01*
X017472Y014800D01*
X017470Y014850D01*
X018100Y015850D02*
X018160Y015848D01*
X018221Y015843D01*
X018280Y015834D01*
X018339Y015821D01*
X018398Y015805D01*
X018455Y015785D01*
X018510Y015762D01*
X018565Y015735D01*
X018617Y015706D01*
X018668Y015673D01*
X018717Y015637D01*
X018763Y015599D01*
X018807Y015557D01*
X018849Y015513D01*
X018887Y015467D01*
X018923Y015418D01*
X018956Y015367D01*
X018985Y015315D01*
X019012Y015260D01*
X019035Y015205D01*
X019055Y015148D01*
X019071Y015089D01*
X019084Y015030D01*
X019093Y014971D01*
X019098Y014910D01*
X019100Y014850D01*
X018100Y015850D02*
X001100Y015850D01*
X000470Y014850D02*
X000472Y014900D01*
X000478Y014950D01*
X000488Y014999D01*
X000502Y015047D01*
X000519Y015094D01*
X000540Y015139D01*
X000565Y015183D01*
X000593Y015224D01*
X000625Y015263D01*
X000659Y015300D01*
X000696Y015334D01*
X000736Y015364D01*
X000778Y015391D01*
X000822Y015415D01*
X000868Y015436D01*
X000915Y015452D01*
X000963Y015465D01*
X001013Y015474D01*
X001062Y015479D01*
X001113Y015480D01*
X001163Y015477D01*
X001212Y015470D01*
X001261Y015459D01*
X001309Y015444D01*
X001355Y015426D01*
X001400Y015404D01*
X001443Y015378D01*
X001484Y015349D01*
X001523Y015317D01*
X001559Y015282D01*
X001591Y015244D01*
X001621Y015204D01*
X001648Y015161D01*
X001671Y015117D01*
X001690Y015071D01*
X001706Y015023D01*
X001718Y014974D01*
X001726Y014925D01*
X001730Y014875D01*
X001730Y014825D01*
X001726Y014775D01*
X001718Y014726D01*
X001706Y014677D01*
X001690Y014629D01*
X001671Y014583D01*
X001648Y014539D01*
X001621Y014496D01*
X001591Y014456D01*
X001559Y014418D01*
X001523Y014383D01*
X001484Y014351D01*
X001443Y014322D01*
X001400Y014296D01*
X001355Y014274D01*
X001309Y014256D01*
X001261Y014241D01*
X001212Y014230D01*
X001163Y014223D01*
X001113Y014220D01*
X001062Y014221D01*
X001013Y014226D01*
X000963Y014235D01*
X000915Y014248D01*
X000868Y014264D01*
X000822Y014285D01*
X000778Y014309D01*
X000736Y014336D01*
X000696Y014366D01*
X000659Y014400D01*
X000625Y014437D01*
X000593Y014476D01*
X000565Y014517D01*
X000540Y014561D01*
X000519Y014606D01*
X000502Y014653D01*
X000488Y014701D01*
X000478Y014750D01*
X000472Y014800D01*
X000470Y014850D01*
X000100Y014850D02*
X000100Y001100D01*
X000470Y001100D02*
X000472Y001150D01*
X000478Y001200D01*
X000488Y001249D01*
X000502Y001297D01*
X000519Y001344D01*
X000540Y001389D01*
X000565Y001433D01*
X000593Y001474D01*
X000625Y001513D01*
X000659Y001550D01*
X000696Y001584D01*
X000736Y001614D01*
X000778Y001641D01*
X000822Y001665D01*
X000868Y001686D01*
X000915Y001702D01*
X000963Y001715D01*
X001013Y001724D01*
X001062Y001729D01*
X001113Y001730D01*
X001163Y001727D01*
X001212Y001720D01*
X001261Y001709D01*
X001309Y001694D01*
X001355Y001676D01*
X001400Y001654D01*
X001443Y001628D01*
X001484Y001599D01*
X001523Y001567D01*
X001559Y001532D01*
X001591Y001494D01*
X001621Y001454D01*
X001648Y001411D01*
X001671Y001367D01*
X001690Y001321D01*
X001706Y001273D01*
X001718Y001224D01*
X001726Y001175D01*
X001730Y001125D01*
X001730Y001075D01*
X001726Y001025D01*
X001718Y000976D01*
X001706Y000927D01*
X001690Y000879D01*
X001671Y000833D01*
X001648Y000789D01*
X001621Y000746D01*
X001591Y000706D01*
X001559Y000668D01*
X001523Y000633D01*
X001484Y000601D01*
X001443Y000572D01*
X001400Y000546D01*
X001355Y000524D01*
X001309Y000506D01*
X001261Y000491D01*
X001212Y000480D01*
X001163Y000473D01*
X001113Y000470D01*
X001062Y000471D01*
X001013Y000476D01*
X000963Y000485D01*
X000915Y000498D01*
X000868Y000514D01*
X000822Y000535D01*
X000778Y000559D01*
X000736Y000586D01*
X000696Y000616D01*
X000659Y000650D01*
X000625Y000687D01*
X000593Y000726D01*
X000565Y000767D01*
X000540Y000811D01*
X000519Y000856D01*
X000502Y000903D01*
X000488Y000951D01*
X000478Y001000D01*
X000472Y001050D01*
X000470Y001100D01*
X000100Y001100D02*
X000102Y001040D01*
X000107Y000979D01*
X000116Y000920D01*
X000129Y000861D01*
X000145Y000802D01*
X000165Y000745D01*
X000188Y000690D01*
X000215Y000635D01*
X000244Y000583D01*
X000277Y000532D01*
X000313Y000483D01*
X000351Y000437D01*
X000393Y000393D01*
X000437Y000351D01*
X000483Y000313D01*
X000532Y000277D01*
X000583Y000244D01*
X000635Y000215D01*
X000690Y000188D01*
X000745Y000165D01*
X000802Y000145D01*
X000861Y000129D01*
X000920Y000116D01*
X000979Y000107D01*
X001040Y000102D01*
X001100Y000100D01*
X000100Y014850D02*
X000102Y014910D01*
X000107Y014971D01*
X000116Y015030D01*
X000129Y015089D01*
X000145Y015148D01*
X000165Y015205D01*
X000188Y015260D01*
X000215Y015315D01*
X000244Y015367D01*
X000277Y015418D01*
X000313Y015467D01*
X000351Y015513D01*
X000393Y015557D01*
X000437Y015599D01*
X000483Y015637D01*
X000532Y015673D01*
X000583Y015706D01*
X000635Y015735D01*
X000690Y015762D01*
X000745Y015785D01*
X000802Y015805D01*
X000861Y015821D01*
X000920Y015834D01*
X000979Y015843D01*
X001040Y015848D01*
X001100Y015850D01*
M02*
