G75*
G70*
%OFA0B0*%
%FSLAX24Y24*%
%IPPOS*%
%LPD*%
%AMOC8*
5,1,8,0,0,1.08239X$1,22.5*
%
%ADD10C,0.0000*%
%ADD11C,0.0030*%
%ADD12C,0.0120*%
%ADD13C,0.0060*%
%ADD14R,0.0150X0.0200*%
%ADD15C,0.0050*%
%ADD16C,0.0100*%
%ADD17R,0.0150X0.0400*%
%ADD18C,0.0070*%
%ADD19C,0.0040*%
%ADD20R,0.0172X0.0006*%
%ADD21R,0.0461X0.0006*%
%ADD22R,0.0485X0.0006*%
%ADD23R,0.0504X0.0006*%
%ADD24R,0.0497X0.0006*%
%ADD25R,0.0516X0.0006*%
%ADD26R,0.0528X0.0006*%
%ADD27R,0.0540X0.0006*%
%ADD28R,0.0553X0.0006*%
%ADD29R,0.0547X0.0006*%
%ADD30R,0.0559X0.0006*%
%ADD31R,0.0571X0.0006*%
%ADD32R,0.0565X0.0006*%
%ADD33R,0.0577X0.0006*%
%ADD34R,0.0583X0.0006*%
%ADD35R,0.0590X0.0006*%
%ADD36R,0.0596X0.0006*%
%ADD37R,0.0602X0.0006*%
%ADD38R,0.0608X0.0006*%
%ADD39R,0.0614X0.0006*%
%ADD40R,0.0620X0.0006*%
%ADD41R,0.0626X0.0006*%
%ADD42R,0.0633X0.0006*%
%ADD43R,0.0639X0.0006*%
%ADD44R,0.0645X0.0006*%
%ADD45R,0.0651X0.0006*%
%ADD46R,0.0657X0.0006*%
%ADD47R,0.0663X0.0006*%
%ADD48R,0.0276X0.0006*%
%ADD49R,0.0270X0.0006*%
%ADD50R,0.0252X0.0006*%
%ADD51R,0.0246X0.0006*%
%ADD52R,0.0240X0.0006*%
%ADD53R,0.0233X0.0006*%
%ADD54R,0.0227X0.0006*%
%ADD55R,0.0264X0.0006*%
%ADD56R,0.0258X0.0006*%
%ADD57R,0.1449X0.0006*%
%ADD58R,0.1443X0.0006*%
%ADD59R,0.1437X0.0006*%
%ADD60R,0.1431X0.0006*%
%ADD61R,0.1425X0.0006*%
%ADD62R,0.1419X0.0006*%
%ADD63R,0.1413X0.0006*%
%ADD64R,0.1406X0.0006*%
%ADD65R,0.1400X0.0006*%
%ADD66R,0.1394X0.0006*%
%ADD67R,0.1388X0.0006*%
%ADD68R,0.1376X0.0006*%
%ADD69R,0.1370X0.0006*%
%ADD70R,0.1357X0.0006*%
%ADD71R,0.1351X0.0006*%
%ADD72R,0.1339X0.0006*%
%ADD73R,0.1333X0.0006*%
%ADD74R,0.1320X0.0006*%
%ADD75R,0.1308X0.0006*%
%ADD76R,0.1296X0.0006*%
%ADD77R,0.1277X0.0006*%
%ADD78R,0.1265X0.0006*%
%ADD79R,0.1247X0.0006*%
%ADD80R,0.1234X0.0006*%
%ADD81R,0.1210X0.0006*%
%ADD82R,0.1191X0.0006*%
%ADD83R,0.1167X0.0006*%
%ADD84R,0.1142X0.0006*%
%ADD85R,0.1112X0.0006*%
%ADD86R,0.1069X0.0006*%
%ADD87R,0.1007X0.0006*%
%ADD88R,0.0006X0.0006*%
%ADD89R,0.0018X0.0006*%
%ADD90R,0.0025X0.0006*%
%ADD91R,0.0043X0.0006*%
%ADD92R,0.0055X0.0006*%
%ADD93R,0.0049X0.0006*%
%ADD94R,0.0061X0.0006*%
%ADD95R,0.0086X0.0006*%
%ADD96R,0.0012X0.0006*%
%ADD97R,0.0080X0.0006*%
%ADD98R,0.0092X0.0006*%
%ADD99R,0.0098X0.0006*%
%ADD100R,0.0104X0.0006*%
%ADD101R,0.0117X0.0006*%
%ADD102R,0.0123X0.0006*%
%ADD103R,0.0135X0.0006*%
%ADD104R,0.0141X0.0006*%
%ADD105R,0.0154X0.0006*%
%ADD106R,0.0166X0.0006*%
%ADD107R,0.0160X0.0006*%
%ADD108R,0.0190X0.0006*%
%ADD109R,0.0184X0.0006*%
%ADD110R,0.0203X0.0006*%
%ADD111R,0.0037X0.0006*%
%ADD112R,0.0221X0.0006*%
%ADD113R,0.0215X0.0006*%
%ADD114R,0.0068X0.0006*%
%ADD115R,0.0369X0.0006*%
%ADD116R,0.0375X0.0006*%
%ADD117R,0.0387X0.0006*%
%ADD118R,0.0393X0.0006*%
%ADD119R,0.0399X0.0006*%
%ADD120R,0.0405X0.0006*%
%ADD121R,0.0418X0.0006*%
%ADD122R,0.0430X0.0006*%
%ADD123R,0.0424X0.0006*%
%ADD124R,0.0411X0.0006*%
%ADD125R,0.0381X0.0006*%
%ADD126R,0.0436X0.0006*%
%ADD127R,0.0442X0.0006*%
%ADD128R,0.0448X0.0006*%
%ADD129R,0.0467X0.0006*%
%ADD130R,0.0473X0.0006*%
%ADD131R,0.0454X0.0006*%
%ADD132R,0.0491X0.0006*%
%ADD133R,0.0534X0.0006*%
%ADD134R,0.0522X0.0006*%
%ADD135R,0.0479X0.0006*%
%ADD136R,0.0510X0.0006*%
%ADD137R,0.1050X0.0006*%
%ADD138R,0.1044X0.0006*%
%ADD139R,0.1038X0.0006*%
%ADD140R,0.1032X0.0006*%
%ADD141R,0.1026X0.0006*%
%ADD142R,0.1013X0.0006*%
%ADD143R,0.1020X0.0006*%
%ADD144R,0.1001X0.0006*%
%ADD145R,0.0995X0.0006*%
%ADD146R,0.0977X0.0006*%
%ADD147R,0.0983X0.0006*%
%ADD148R,0.1063X0.0006*%
%ADD149R,0.1075X0.0006*%
%ADD150R,0.1093X0.0006*%
%ADD151R,0.1106X0.0006*%
%ADD152R,0.1099X0.0006*%
%ADD153R,0.1118X0.0006*%
%ADD154R,0.1124X0.0006*%
%ADD155R,0.1149X0.0006*%
%ADD156R,0.1161X0.0006*%
%ADD157R,0.1179X0.0006*%
%ADD158R,0.1185X0.0006*%
%ADD159R,0.1198X0.0006*%
%ADD160R,0.1204X0.0006*%
%ADD161R,0.1173X0.0006*%
%ADD162R,0.0289X0.0006*%
%ADD163R,0.0854X0.0006*%
%ADD164R,0.0209X0.0006*%
%ADD165R,0.0197X0.0006*%
%ADD166R,0.0338X0.0006*%
%ADD167R,0.0178X0.0006*%
%ADD168R,0.0319X0.0006*%
%ADD169R,0.0295X0.0006*%
%ADD170R,0.0147X0.0006*%
%ADD171R,0.0283X0.0006*%
%ADD172R,0.0129X0.0006*%
D10*
X001100Y000100D02*
X018100Y000100D01*
X017470Y001100D02*
X017472Y001150D01*
X017478Y001200D01*
X017488Y001249D01*
X017502Y001297D01*
X017519Y001344D01*
X017540Y001389D01*
X017565Y001433D01*
X017593Y001474D01*
X017625Y001513D01*
X017659Y001550D01*
X017696Y001584D01*
X017736Y001614D01*
X017778Y001641D01*
X017822Y001665D01*
X017868Y001686D01*
X017915Y001702D01*
X017963Y001715D01*
X018013Y001724D01*
X018062Y001729D01*
X018113Y001730D01*
X018163Y001727D01*
X018212Y001720D01*
X018261Y001709D01*
X018309Y001694D01*
X018355Y001676D01*
X018400Y001654D01*
X018443Y001628D01*
X018484Y001599D01*
X018523Y001567D01*
X018559Y001532D01*
X018591Y001494D01*
X018621Y001454D01*
X018648Y001411D01*
X018671Y001367D01*
X018690Y001321D01*
X018706Y001273D01*
X018718Y001224D01*
X018726Y001175D01*
X018730Y001125D01*
X018730Y001075D01*
X018726Y001025D01*
X018718Y000976D01*
X018706Y000927D01*
X018690Y000879D01*
X018671Y000833D01*
X018648Y000789D01*
X018621Y000746D01*
X018591Y000706D01*
X018559Y000668D01*
X018523Y000633D01*
X018484Y000601D01*
X018443Y000572D01*
X018400Y000546D01*
X018355Y000524D01*
X018309Y000506D01*
X018261Y000491D01*
X018212Y000480D01*
X018163Y000473D01*
X018113Y000470D01*
X018062Y000471D01*
X018013Y000476D01*
X017963Y000485D01*
X017915Y000498D01*
X017868Y000514D01*
X017822Y000535D01*
X017778Y000559D01*
X017736Y000586D01*
X017696Y000616D01*
X017659Y000650D01*
X017625Y000687D01*
X017593Y000726D01*
X017565Y000767D01*
X017540Y000811D01*
X017519Y000856D01*
X017502Y000903D01*
X017488Y000951D01*
X017478Y001000D01*
X017472Y001050D01*
X017470Y001100D01*
X018100Y000100D02*
X018160Y000102D01*
X018221Y000107D01*
X018280Y000116D01*
X018339Y000129D01*
X018398Y000145D01*
X018455Y000165D01*
X018510Y000188D01*
X018565Y000215D01*
X018617Y000244D01*
X018668Y000277D01*
X018717Y000313D01*
X018763Y000351D01*
X018807Y000393D01*
X018849Y000437D01*
X018887Y000483D01*
X018923Y000532D01*
X018956Y000583D01*
X018985Y000635D01*
X019012Y000690D01*
X019035Y000745D01*
X019055Y000802D01*
X019071Y000861D01*
X019084Y000920D01*
X019093Y000979D01*
X019098Y001040D01*
X019100Y001100D01*
X019100Y014850D01*
X017470Y014850D02*
X017472Y014900D01*
X017478Y014950D01*
X017488Y014999D01*
X017502Y015047D01*
X017519Y015094D01*
X017540Y015139D01*
X017565Y015183D01*
X017593Y015224D01*
X017625Y015263D01*
X017659Y015300D01*
X017696Y015334D01*
X017736Y015364D01*
X017778Y015391D01*
X017822Y015415D01*
X017868Y015436D01*
X017915Y015452D01*
X017963Y015465D01*
X018013Y015474D01*
X018062Y015479D01*
X018113Y015480D01*
X018163Y015477D01*
X018212Y015470D01*
X018261Y015459D01*
X018309Y015444D01*
X018355Y015426D01*
X018400Y015404D01*
X018443Y015378D01*
X018484Y015349D01*
X018523Y015317D01*
X018559Y015282D01*
X018591Y015244D01*
X018621Y015204D01*
X018648Y015161D01*
X018671Y015117D01*
X018690Y015071D01*
X018706Y015023D01*
X018718Y014974D01*
X018726Y014925D01*
X018730Y014875D01*
X018730Y014825D01*
X018726Y014775D01*
X018718Y014726D01*
X018706Y014677D01*
X018690Y014629D01*
X018671Y014583D01*
X018648Y014539D01*
X018621Y014496D01*
X018591Y014456D01*
X018559Y014418D01*
X018523Y014383D01*
X018484Y014351D01*
X018443Y014322D01*
X018400Y014296D01*
X018355Y014274D01*
X018309Y014256D01*
X018261Y014241D01*
X018212Y014230D01*
X018163Y014223D01*
X018113Y014220D01*
X018062Y014221D01*
X018013Y014226D01*
X017963Y014235D01*
X017915Y014248D01*
X017868Y014264D01*
X017822Y014285D01*
X017778Y014309D01*
X017736Y014336D01*
X017696Y014366D01*
X017659Y014400D01*
X017625Y014437D01*
X017593Y014476D01*
X017565Y014517D01*
X017540Y014561D01*
X017519Y014606D01*
X017502Y014653D01*
X017488Y014701D01*
X017478Y014750D01*
X017472Y014800D01*
X017470Y014850D01*
X018100Y015850D02*
X018160Y015848D01*
X018221Y015843D01*
X018280Y015834D01*
X018339Y015821D01*
X018398Y015805D01*
X018455Y015785D01*
X018510Y015762D01*
X018565Y015735D01*
X018617Y015706D01*
X018668Y015673D01*
X018717Y015637D01*
X018763Y015599D01*
X018807Y015557D01*
X018849Y015513D01*
X018887Y015467D01*
X018923Y015418D01*
X018956Y015367D01*
X018985Y015315D01*
X019012Y015260D01*
X019035Y015205D01*
X019055Y015148D01*
X019071Y015089D01*
X019084Y015030D01*
X019093Y014971D01*
X019098Y014910D01*
X019100Y014850D01*
X018100Y015850D02*
X001100Y015850D01*
X000470Y014850D02*
X000472Y014900D01*
X000478Y014950D01*
X000488Y014999D01*
X000502Y015047D01*
X000519Y015094D01*
X000540Y015139D01*
X000565Y015183D01*
X000593Y015224D01*
X000625Y015263D01*
X000659Y015300D01*
X000696Y015334D01*
X000736Y015364D01*
X000778Y015391D01*
X000822Y015415D01*
X000868Y015436D01*
X000915Y015452D01*
X000963Y015465D01*
X001013Y015474D01*
X001062Y015479D01*
X001113Y015480D01*
X001163Y015477D01*
X001212Y015470D01*
X001261Y015459D01*
X001309Y015444D01*
X001355Y015426D01*
X001400Y015404D01*
X001443Y015378D01*
X001484Y015349D01*
X001523Y015317D01*
X001559Y015282D01*
X001591Y015244D01*
X001621Y015204D01*
X001648Y015161D01*
X001671Y015117D01*
X001690Y015071D01*
X001706Y015023D01*
X001718Y014974D01*
X001726Y014925D01*
X001730Y014875D01*
X001730Y014825D01*
X001726Y014775D01*
X001718Y014726D01*
X001706Y014677D01*
X001690Y014629D01*
X001671Y014583D01*
X001648Y014539D01*
X001621Y014496D01*
X001591Y014456D01*
X001559Y014418D01*
X001523Y014383D01*
X001484Y014351D01*
X001443Y014322D01*
X001400Y014296D01*
X001355Y014274D01*
X001309Y014256D01*
X001261Y014241D01*
X001212Y014230D01*
X001163Y014223D01*
X001113Y014220D01*
X001062Y014221D01*
X001013Y014226D01*
X000963Y014235D01*
X000915Y014248D01*
X000868Y014264D01*
X000822Y014285D01*
X000778Y014309D01*
X000736Y014336D01*
X000696Y014366D01*
X000659Y014400D01*
X000625Y014437D01*
X000593Y014476D01*
X000565Y014517D01*
X000540Y014561D01*
X000519Y014606D01*
X000502Y014653D01*
X000488Y014701D01*
X000478Y014750D01*
X000472Y014800D01*
X000470Y014850D01*
X000100Y014850D02*
X000100Y001100D01*
X000470Y001100D02*
X000472Y001150D01*
X000478Y001200D01*
X000488Y001249D01*
X000502Y001297D01*
X000519Y001344D01*
X000540Y001389D01*
X000565Y001433D01*
X000593Y001474D01*
X000625Y001513D01*
X000659Y001550D01*
X000696Y001584D01*
X000736Y001614D01*
X000778Y001641D01*
X000822Y001665D01*
X000868Y001686D01*
X000915Y001702D01*
X000963Y001715D01*
X001013Y001724D01*
X001062Y001729D01*
X001113Y001730D01*
X001163Y001727D01*
X001212Y001720D01*
X001261Y001709D01*
X001309Y001694D01*
X001355Y001676D01*
X001400Y001654D01*
X001443Y001628D01*
X001484Y001599D01*
X001523Y001567D01*
X001559Y001532D01*
X001591Y001494D01*
X001621Y001454D01*
X001648Y001411D01*
X001671Y001367D01*
X001690Y001321D01*
X001706Y001273D01*
X001718Y001224D01*
X001726Y001175D01*
X001730Y001125D01*
X001730Y001075D01*
X001726Y001025D01*
X001718Y000976D01*
X001706Y000927D01*
X001690Y000879D01*
X001671Y000833D01*
X001648Y000789D01*
X001621Y000746D01*
X001591Y000706D01*
X001559Y000668D01*
X001523Y000633D01*
X001484Y000601D01*
X001443Y000572D01*
X001400Y000546D01*
X001355Y000524D01*
X001309Y000506D01*
X001261Y000491D01*
X001212Y000480D01*
X001163Y000473D01*
X001113Y000470D01*
X001062Y000471D01*
X001013Y000476D01*
X000963Y000485D01*
X000915Y000498D01*
X000868Y000514D01*
X000822Y000535D01*
X000778Y000559D01*
X000736Y000586D01*
X000696Y000616D01*
X000659Y000650D01*
X000625Y000687D01*
X000593Y000726D01*
X000565Y000767D01*
X000540Y000811D01*
X000519Y000856D01*
X000502Y000903D01*
X000488Y000951D01*
X000478Y001000D01*
X000472Y001050D01*
X000470Y001100D01*
X000100Y001100D02*
X000102Y001040D01*
X000107Y000979D01*
X000116Y000920D01*
X000129Y000861D01*
X000145Y000802D01*
X000165Y000745D01*
X000188Y000690D01*
X000215Y000635D01*
X000244Y000583D01*
X000277Y000532D01*
X000313Y000483D01*
X000351Y000437D01*
X000393Y000393D01*
X000437Y000351D01*
X000483Y000313D01*
X000532Y000277D01*
X000583Y000244D01*
X000635Y000215D01*
X000690Y000188D01*
X000745Y000165D01*
X000802Y000145D01*
X000861Y000129D01*
X000920Y000116D01*
X000979Y000107D01*
X001040Y000102D01*
X001100Y000100D01*
X000100Y014850D02*
X000102Y014910D01*
X000107Y014971D01*
X000116Y015030D01*
X000129Y015089D01*
X000145Y015148D01*
X000165Y015205D01*
X000188Y015260D01*
X000215Y015315D01*
X000244Y015367D01*
X000277Y015418D01*
X000313Y015467D01*
X000351Y015513D01*
X000393Y015557D01*
X000437Y015599D01*
X000483Y015637D01*
X000532Y015673D01*
X000583Y015706D01*
X000635Y015735D01*
X000690Y015762D01*
X000745Y015785D01*
X000802Y015805D01*
X000861Y015821D01*
X000920Y015834D01*
X000979Y015843D01*
X001040Y015848D01*
X001100Y015850D01*
D11*
X010076Y012535D02*
X010076Y012165D01*
X010076Y012288D02*
X010261Y012288D01*
X010323Y012350D01*
X010323Y012474D01*
X010261Y012535D01*
X010076Y012535D01*
X010444Y012535D02*
X010444Y012165D01*
X010568Y012288D01*
X010691Y012165D01*
X010691Y012535D01*
X010813Y012535D02*
X010998Y012535D01*
X011059Y012474D01*
X011059Y012350D01*
X010998Y012288D01*
X010813Y012288D01*
X010936Y012288D02*
X011059Y012165D01*
X010813Y012165D02*
X010813Y012535D01*
X011549Y012474D02*
X011549Y012412D01*
X011611Y012350D01*
X011734Y012350D01*
X011796Y012288D01*
X011796Y012227D01*
X011734Y012165D01*
X011611Y012165D01*
X011549Y012227D01*
X011549Y012474D02*
X011611Y012535D01*
X011734Y012535D01*
X011796Y012474D01*
X011917Y012535D02*
X011917Y012165D01*
X012164Y012165D01*
X012286Y012165D02*
X012533Y012165D01*
X012286Y012165D02*
X012286Y012535D01*
X012164Y012535D02*
X011917Y012535D01*
X011917Y012350D02*
X012041Y012350D01*
X013628Y012350D02*
X013875Y012350D01*
X013875Y012412D02*
X013875Y012165D01*
X013997Y012227D02*
X014058Y012165D01*
X014182Y012165D01*
X014244Y012227D01*
X014244Y012350D01*
X014120Y012350D01*
X013997Y012227D02*
X013997Y012474D01*
X014058Y012535D01*
X014182Y012535D01*
X014244Y012474D01*
X014365Y012535D02*
X014612Y012165D01*
X014612Y012535D01*
X014733Y012535D02*
X014918Y012535D01*
X014980Y012474D01*
X014980Y012227D01*
X014918Y012165D01*
X014733Y012165D01*
X014733Y012535D01*
X014365Y012535D02*
X014365Y012165D01*
X013875Y012412D02*
X013752Y012535D01*
X013628Y012412D01*
X013628Y012165D01*
X012668Y014415D02*
X012545Y014415D01*
X012483Y014477D01*
X012362Y014538D02*
X012362Y014785D01*
X012483Y014724D02*
X012545Y014785D01*
X012668Y014785D01*
X012730Y014724D01*
X012730Y014662D01*
X012668Y014600D01*
X012730Y014538D01*
X012730Y014477D01*
X012668Y014415D01*
X012668Y014600D02*
X012607Y014600D01*
X012362Y014538D02*
X012238Y014415D01*
X012115Y014538D01*
X012115Y014785D01*
X011994Y014724D02*
X011994Y014662D01*
X011932Y014600D01*
X011994Y014538D01*
X011994Y014477D01*
X011932Y014415D01*
X011808Y014415D01*
X011747Y014477D01*
X011625Y014600D02*
X011378Y014600D01*
X011502Y014477D02*
X011502Y014724D01*
X011747Y014724D02*
X011808Y014785D01*
X011932Y014785D01*
X011994Y014724D01*
X011932Y014600D02*
X011870Y014600D01*
X010862Y014600D02*
X010862Y014477D01*
X010800Y014415D01*
X010677Y014415D01*
X010615Y014477D01*
X010615Y014600D02*
X010738Y014662D01*
X010800Y014662D01*
X010862Y014600D01*
X010862Y014785D02*
X010615Y014785D01*
X010615Y014600D01*
X010494Y014600D02*
X010247Y014600D01*
X010370Y014477D02*
X010370Y014724D01*
X016128Y012535D02*
X016128Y012288D01*
X016252Y012165D01*
X016375Y012288D01*
X016375Y012535D01*
X016497Y012535D02*
X016682Y012535D01*
X016744Y012474D01*
X016744Y012350D01*
X016682Y012288D01*
X016497Y012288D01*
X016497Y012165D02*
X016497Y012535D01*
X016620Y012288D02*
X016744Y012165D01*
X016865Y012165D02*
X017112Y012165D01*
X017233Y012165D02*
X017233Y012535D01*
X017480Y012535D01*
X017357Y012350D02*
X017233Y012350D01*
X017112Y012535D02*
X016865Y012535D01*
X016865Y012165D01*
X016865Y012350D02*
X016988Y012350D01*
X017427Y011035D02*
X017365Y010974D01*
X017365Y010727D01*
X017427Y010665D01*
X017550Y010665D01*
X017612Y010727D01*
X017612Y010850D01*
X017488Y010850D01*
X017612Y010974D02*
X017550Y011035D01*
X017427Y011035D01*
X017733Y011035D02*
X017980Y010665D01*
X017980Y011035D01*
X018102Y011035D02*
X018287Y011035D01*
X018349Y010974D01*
X018349Y010727D01*
X018287Y010665D01*
X018102Y010665D01*
X018102Y011035D01*
X017733Y011035D02*
X017733Y010665D01*
X017733Y010035D02*
X017918Y010035D01*
X017980Y009974D01*
X017980Y009850D01*
X017918Y009788D01*
X017733Y009788D01*
X017612Y009788D02*
X017488Y009665D01*
X017365Y009788D01*
X017365Y010035D01*
X017612Y010035D02*
X017612Y009788D01*
X017733Y009665D02*
X017733Y010035D01*
X017857Y009788D02*
X017980Y009665D01*
X018102Y009665D02*
X018349Y009665D01*
X018470Y009665D02*
X018470Y010035D01*
X018717Y010035D01*
X018593Y009850D02*
X018470Y009850D01*
X018349Y010035D02*
X018102Y010035D01*
X018102Y009665D01*
X018102Y009850D02*
X018225Y009850D01*
X018102Y009035D02*
X018102Y008727D01*
X018163Y008665D01*
X018287Y008665D01*
X018349Y008727D01*
X018349Y009035D01*
X018470Y009035D02*
X018717Y009035D01*
X018593Y009035D02*
X018593Y008665D01*
X017980Y008727D02*
X017980Y008974D01*
X017918Y009035D01*
X017795Y009035D01*
X017733Y008974D01*
X017733Y008727D01*
X017795Y008665D01*
X017918Y008665D01*
X017980Y008727D01*
X017612Y008665D02*
X017612Y008912D01*
X017488Y009035D01*
X017365Y008912D01*
X017365Y008665D01*
X017365Y008850D02*
X017612Y008850D01*
X017488Y008035D02*
X017612Y007912D01*
X017612Y007665D01*
X017733Y007727D02*
X017733Y007974D01*
X017795Y008035D01*
X017918Y008035D01*
X017980Y007974D01*
X017980Y007850D02*
X017857Y007850D01*
X017980Y007850D02*
X017980Y007727D01*
X017918Y007665D01*
X017795Y007665D01*
X017733Y007727D01*
X017612Y007850D02*
X017365Y007850D01*
X017365Y007912D02*
X017488Y008035D01*
X017365Y007912D02*
X017365Y007665D01*
X017488Y007035D02*
X017612Y006912D01*
X017612Y006665D01*
X017733Y006665D02*
X017857Y006665D01*
X017795Y006665D02*
X017795Y007035D01*
X017733Y007035D02*
X017857Y007035D01*
X017979Y007035D02*
X018226Y006665D01*
X018226Y007035D01*
X018347Y006974D02*
X018409Y007035D01*
X018532Y007035D01*
X018594Y006974D01*
X018594Y006912D01*
X018532Y006850D01*
X018594Y006788D01*
X018594Y006727D01*
X018532Y006665D01*
X018409Y006665D01*
X018347Y006727D01*
X018471Y006850D02*
X018532Y006850D01*
X017979Y006665D02*
X017979Y007035D01*
X017612Y006850D02*
X017365Y006850D01*
X017365Y006912D02*
X017365Y006665D01*
X017365Y006912D02*
X017488Y007035D01*
X018102Y007665D02*
X018102Y008035D01*
X018349Y007665D01*
X018349Y008035D01*
X018470Y008035D02*
X018655Y008035D01*
X018717Y007974D01*
X018717Y007727D01*
X018655Y007665D01*
X018470Y007665D01*
X018470Y008035D01*
X018409Y006035D02*
X018347Y005974D01*
X018409Y006035D02*
X018532Y006035D01*
X018594Y005974D01*
X018594Y005912D01*
X018347Y005665D01*
X018594Y005665D01*
X018226Y005665D02*
X018226Y006035D01*
X017979Y006035D02*
X018226Y005665D01*
X017979Y005665D02*
X017979Y006035D01*
X017857Y006035D02*
X017733Y006035D01*
X017795Y006035D02*
X017795Y005665D01*
X017733Y005665D02*
X017857Y005665D01*
X017612Y005665D02*
X017612Y005912D01*
X017488Y006035D01*
X017365Y005912D01*
X017365Y005665D01*
X017365Y005850D02*
X017612Y005850D01*
X017733Y005035D02*
X017857Y005035D01*
X017795Y005035D02*
X017795Y004665D01*
X017733Y004665D02*
X017857Y004665D01*
X017979Y004665D02*
X017979Y005035D01*
X018226Y004665D01*
X018226Y005035D01*
X018347Y004912D02*
X018471Y005035D01*
X018471Y004665D01*
X018594Y004665D02*
X018347Y004665D01*
X018409Y004035D02*
X018532Y004035D01*
X018594Y003974D01*
X018347Y003727D01*
X018409Y003665D01*
X018532Y003665D01*
X018594Y003727D01*
X018594Y003974D01*
X018409Y004035D02*
X018347Y003974D01*
X018347Y003727D01*
X018226Y003665D02*
X018226Y004035D01*
X017979Y004035D02*
X018226Y003665D01*
X017979Y003665D02*
X017979Y004035D01*
X017857Y004035D02*
X017733Y004035D01*
X017795Y004035D02*
X017795Y003665D01*
X017733Y003665D02*
X017857Y003665D01*
X017612Y003665D02*
X017612Y003912D01*
X017488Y004035D01*
X017365Y003912D01*
X017365Y003665D01*
X017365Y003850D02*
X017612Y003850D01*
X017612Y004665D02*
X017612Y004912D01*
X017488Y005035D01*
X017365Y004912D01*
X017365Y004665D01*
X017365Y004850D02*
X017612Y004850D01*
X015373Y001735D02*
X015126Y001735D01*
X014821Y001674D02*
X014574Y001427D01*
X014636Y001365D01*
X014759Y001365D01*
X014821Y001427D01*
X014821Y001674D01*
X014759Y001735D01*
X014636Y001735D01*
X014574Y001674D01*
X014574Y001427D01*
X014452Y001488D02*
X014452Y001735D01*
X014452Y001488D02*
X014329Y001365D01*
X014206Y001488D01*
X014206Y001735D01*
X013716Y001735D02*
X013716Y001365D01*
X013531Y001365D01*
X013469Y001427D01*
X013469Y001550D01*
X013531Y001612D01*
X013716Y001612D01*
X013347Y001612D02*
X013285Y001612D01*
X013162Y001488D01*
X013041Y001488D02*
X012855Y001488D01*
X012794Y001427D01*
X012855Y001365D01*
X013041Y001365D01*
X013041Y001550D01*
X012979Y001612D01*
X012855Y001612D01*
X012672Y001550D02*
X012611Y001612D01*
X012487Y001612D01*
X012425Y001550D01*
X012425Y001427D01*
X012487Y001365D01*
X012611Y001365D01*
X012672Y001427D01*
X012672Y001550D01*
X012304Y001488D02*
X012304Y001427D01*
X012242Y001365D01*
X012057Y001365D01*
X012057Y001735D01*
X012242Y001735D01*
X012304Y001674D01*
X012304Y001612D01*
X012242Y001550D01*
X012057Y001550D01*
X012242Y001550D02*
X012304Y001488D01*
X012399Y000985D02*
X012522Y000985D01*
X012584Y000924D01*
X012337Y000677D01*
X012399Y000615D01*
X012522Y000615D01*
X012584Y000677D01*
X012584Y000924D01*
X012706Y000862D02*
X012829Y000985D01*
X012829Y000615D01*
X012706Y000615D02*
X012952Y000615D01*
X013074Y000615D02*
X013321Y000862D01*
X013321Y000924D01*
X013259Y000985D01*
X013136Y000985D01*
X013074Y000924D01*
X013074Y000615D02*
X013321Y000615D01*
X013811Y000677D02*
X013811Y000924D01*
X013872Y000985D01*
X013996Y000985D01*
X014057Y000924D01*
X014057Y000677D01*
X013996Y000615D01*
X013872Y000615D01*
X013811Y000677D01*
X013934Y000738D02*
X014057Y000615D01*
X014179Y000677D02*
X014241Y000615D01*
X014426Y000615D01*
X014426Y000862D01*
X014547Y000862D02*
X014609Y000862D01*
X014609Y000615D01*
X014547Y000615D02*
X014671Y000615D01*
X014793Y000677D02*
X014854Y000615D01*
X015040Y000615D01*
X015161Y000615D02*
X015161Y000985D01*
X015040Y000862D02*
X014854Y000862D01*
X014793Y000800D01*
X014793Y000677D01*
X015161Y000738D02*
X015346Y000862D01*
X015468Y000924D02*
X015530Y000985D01*
X015653Y000985D01*
X015715Y000924D01*
X015715Y000862D01*
X015468Y000615D01*
X015715Y000615D01*
X015836Y000615D02*
X015960Y000738D01*
X016083Y000615D01*
X016083Y000985D01*
X016205Y000862D02*
X016266Y000862D01*
X016266Y000615D01*
X016205Y000615D02*
X016328Y000615D01*
X016450Y000615D02*
X016450Y000862D01*
X016450Y000738D02*
X016574Y000862D01*
X016635Y000862D01*
X016757Y000800D02*
X016757Y000677D01*
X016819Y000615D01*
X016942Y000615D01*
X017004Y000738D02*
X016757Y000738D01*
X016757Y000800D02*
X016819Y000862D01*
X016942Y000862D01*
X017004Y000800D01*
X017004Y000738D01*
X016266Y000985D02*
X016266Y001047D01*
X015836Y000985D02*
X015836Y000615D01*
X015346Y000615D02*
X015161Y000738D01*
X014609Y000985D02*
X014609Y001047D01*
X014942Y001365D02*
X015004Y001365D01*
X015004Y001427D01*
X014942Y001427D01*
X014942Y001365D01*
X015126Y001365D02*
X015126Y001427D01*
X015373Y001674D01*
X015373Y001735D01*
X014179Y000862D02*
X014179Y000677D01*
X013162Y001365D02*
X013162Y001612D01*
X012399Y000985D02*
X012337Y000924D01*
X012337Y000677D01*
X012216Y000615D02*
X011969Y000615D01*
X012216Y000862D01*
X012216Y000924D01*
X012154Y000985D01*
X012031Y000985D01*
X011969Y000924D01*
X011479Y000862D02*
X011479Y000738D01*
X011355Y000615D01*
X011234Y000615D02*
X011048Y000615D01*
X010987Y000677D01*
X010987Y000800D01*
X011048Y000862D01*
X011234Y000862D01*
X011355Y000985D02*
X011479Y000862D01*
X011506Y001365D02*
X011382Y001365D01*
X011320Y001427D01*
X011320Y001550D01*
X011382Y001612D01*
X011506Y001612D01*
X011567Y001550D01*
X011567Y001488D01*
X011320Y001488D01*
X011199Y001365D02*
X011014Y001365D01*
X010952Y001427D01*
X010952Y001612D01*
X010831Y001612D02*
X010646Y001612D01*
X010584Y001550D01*
X010584Y001427D01*
X010646Y001365D01*
X010831Y001365D01*
X010831Y001303D02*
X010831Y001612D01*
X010831Y001303D02*
X010769Y001242D01*
X010707Y001242D01*
X010865Y000985D02*
X010741Y000862D01*
X010741Y000738D01*
X010865Y000615D01*
X010251Y000615D02*
X010189Y000677D01*
X010189Y000924D01*
X010127Y000862D02*
X010251Y000862D01*
X010006Y000800D02*
X010006Y000615D01*
X010006Y000800D02*
X009944Y000862D01*
X009821Y000862D01*
X009759Y000800D01*
X009638Y000862D02*
X009452Y000862D01*
X009391Y000800D01*
X009391Y000677D01*
X009452Y000615D01*
X009638Y000615D01*
X009638Y000553D02*
X009638Y000862D01*
X009759Y000985D02*
X009759Y000615D01*
X009638Y000553D02*
X009576Y000492D01*
X009514Y000492D01*
X009269Y000615D02*
X009145Y000615D01*
X009207Y000615D02*
X009207Y000862D01*
X009145Y000862D01*
X009023Y000862D02*
X008962Y000862D01*
X008838Y000738D01*
X008838Y000615D02*
X008838Y000862D01*
X008717Y000862D02*
X008717Y000553D01*
X008655Y000492D01*
X008593Y000492D01*
X008532Y000615D02*
X008717Y000615D01*
X008532Y000615D02*
X008470Y000677D01*
X008470Y000862D01*
X008349Y000800D02*
X008349Y000677D01*
X008287Y000615D01*
X008102Y000615D01*
X008102Y000492D02*
X008102Y000862D01*
X008287Y000862D01*
X008349Y000800D01*
X007980Y000800D02*
X007980Y000677D01*
X007918Y000615D01*
X007795Y000615D01*
X007733Y000677D01*
X007733Y000800D01*
X007795Y000862D01*
X007918Y000862D01*
X007980Y000800D01*
X007612Y000677D02*
X007550Y000615D01*
X007427Y000615D01*
X007365Y000677D01*
X007365Y000924D01*
X007427Y000985D01*
X007550Y000985D01*
X007612Y000924D01*
X008865Y001365D02*
X008865Y001612D01*
X008988Y001735D01*
X009112Y001612D01*
X009112Y001365D01*
X009233Y001365D02*
X009233Y001612D01*
X009418Y001612D01*
X009480Y001550D01*
X009480Y001365D01*
X009602Y001427D02*
X009663Y001488D01*
X009849Y001488D01*
X009849Y001550D02*
X009849Y001365D01*
X009663Y001365D01*
X009602Y001427D01*
X009787Y001612D02*
X009849Y001550D01*
X009787Y001612D02*
X009663Y001612D01*
X009970Y001735D02*
X010032Y001735D01*
X010032Y001365D01*
X010093Y001365D02*
X009970Y001365D01*
X010215Y001427D02*
X010277Y001365D01*
X010401Y001365D01*
X010462Y001427D01*
X010462Y001550D01*
X010401Y001612D01*
X010277Y001612D01*
X010215Y001550D01*
X010215Y001427D01*
X011199Y001365D02*
X011199Y001612D01*
X009207Y001047D02*
X009207Y000985D01*
X009112Y001550D02*
X008865Y001550D01*
D12*
X010350Y013850D02*
X010350Y014100D01*
X011100Y014100D01*
X011100Y013850D01*
X011600Y013850D02*
X011600Y014100D01*
X012350Y014100D01*
X012350Y013850D01*
D13*
X012100Y013850D02*
X012600Y013850D01*
X012850Y013600D01*
X012850Y013100D01*
X012600Y012850D01*
X012100Y012850D01*
X011850Y013100D01*
X011600Y012850D01*
X011100Y012850D01*
X010850Y013100D01*
X010600Y012850D01*
X010100Y012850D01*
X009850Y013100D01*
X009850Y013600D01*
X010100Y013850D01*
X010600Y013850D01*
X010850Y013600D01*
X011100Y013850D01*
X011600Y013850D01*
X011850Y013600D01*
X012100Y013850D01*
X011850Y013600D02*
X011850Y013100D01*
X010850Y013100D02*
X010850Y013600D01*
X012250Y011700D02*
X013950Y011700D01*
X013967Y011698D01*
X013984Y011694D01*
X014000Y011687D01*
X014014Y011677D01*
X014027Y011664D01*
X014037Y011650D01*
X014044Y011634D01*
X014048Y011617D01*
X014050Y011600D01*
X014050Y010600D01*
X014048Y010583D01*
X014044Y010566D01*
X014037Y010550D01*
X014027Y010536D01*
X014014Y010523D01*
X014000Y010513D01*
X013984Y010506D01*
X013967Y010502D01*
X013950Y010500D01*
X012250Y010500D01*
X012233Y010502D01*
X012216Y010506D01*
X012200Y010513D01*
X012186Y010523D01*
X012173Y010536D01*
X012163Y010550D01*
X012156Y010566D01*
X012152Y010583D01*
X012150Y010600D01*
X012150Y011600D01*
X012152Y011617D01*
X012156Y011634D01*
X012163Y011650D01*
X012173Y011664D01*
X012186Y011677D01*
X012200Y011687D01*
X012216Y011694D01*
X012233Y011698D01*
X012250Y011700D01*
X012950Y011100D02*
X013000Y011100D01*
X013200Y011100D02*
X013250Y011100D01*
X013350Y010100D02*
X014200Y010100D01*
X014200Y002100D01*
X012000Y002100D01*
X012000Y010100D01*
X012850Y010100D01*
X012852Y010070D01*
X012857Y010040D01*
X012866Y010011D01*
X012879Y009984D01*
X012894Y009958D01*
X012913Y009934D01*
X012934Y009913D01*
X012958Y009894D01*
X012984Y009879D01*
X013011Y009866D01*
X013040Y009857D01*
X013070Y009852D01*
X013100Y009850D01*
X013130Y009852D01*
X013160Y009857D01*
X013189Y009866D01*
X013216Y009879D01*
X013242Y009894D01*
X013266Y009913D01*
X013287Y009934D01*
X013306Y009958D01*
X013321Y009984D01*
X013334Y010011D01*
X013343Y010040D01*
X013348Y010070D01*
X013350Y010100D01*
X016100Y010100D02*
X016100Y009600D01*
X016350Y009350D01*
X016850Y009350D01*
X017100Y009600D01*
X017100Y010100D01*
X016850Y010350D01*
X017100Y010600D01*
X017100Y011100D01*
X016850Y011350D01*
X016350Y011350D01*
X016100Y011100D01*
X016100Y010600D01*
X016350Y010350D01*
X016850Y010350D01*
X016350Y010350D02*
X016100Y010100D01*
X016350Y009350D02*
X016100Y009100D01*
X016100Y008600D01*
X016350Y008350D01*
X016850Y008350D01*
X017100Y008100D01*
X017100Y007600D01*
X016850Y007350D01*
X017100Y007100D01*
X017100Y006600D01*
X016850Y006350D01*
X017100Y006100D01*
X017100Y005600D01*
X016850Y005350D01*
X017100Y005100D01*
X017100Y004600D01*
X016850Y004350D01*
X017100Y004100D01*
X017100Y003600D01*
X016850Y003350D01*
X016350Y003350D01*
X016100Y003600D01*
X016100Y004100D01*
X016350Y004350D01*
X016100Y004600D01*
X016100Y005100D01*
X016350Y005350D01*
X016850Y005350D01*
X016350Y005350D02*
X016100Y005600D01*
X016100Y006100D01*
X016350Y006350D01*
X016100Y006600D01*
X016100Y007100D01*
X016350Y007350D01*
X016100Y007600D01*
X016100Y008100D01*
X016350Y008350D01*
X016850Y008350D02*
X017100Y008600D01*
X017100Y009100D01*
X016850Y009350D01*
X016850Y007350D02*
X016350Y007350D01*
X016350Y006350D02*
X016850Y006350D01*
X016850Y004350D02*
X016350Y004350D01*
X009100Y006800D02*
X009100Y007400D01*
X009098Y007417D01*
X009094Y007434D01*
X009087Y007450D01*
X009077Y007464D01*
X009064Y007477D01*
X009050Y007487D01*
X009034Y007494D01*
X009017Y007498D01*
X009000Y007500D01*
X008850Y007500D01*
X008800Y007450D01*
X007400Y007450D01*
X007350Y007500D01*
X007200Y007500D01*
X007183Y007498D01*
X007166Y007494D01*
X007150Y007487D01*
X007136Y007477D01*
X007123Y007464D01*
X007113Y007450D01*
X007106Y007434D01*
X007102Y007417D01*
X007100Y007400D01*
X007100Y006800D01*
X007102Y006783D01*
X007106Y006766D01*
X007113Y006750D01*
X007123Y006736D01*
X007136Y006723D01*
X007150Y006713D01*
X007166Y006706D01*
X007183Y006702D01*
X007200Y006700D01*
X007350Y006700D01*
X007400Y006750D01*
X008800Y006750D01*
X008850Y006700D01*
X009000Y006700D01*
X009017Y006702D01*
X009034Y006706D01*
X009050Y006713D01*
X009064Y006723D01*
X009077Y006736D01*
X009087Y006750D01*
X009094Y006766D01*
X009098Y006783D01*
X009100Y006800D01*
X009000Y007700D02*
X008850Y007700D01*
X008800Y007750D01*
X007400Y007750D01*
X007350Y007700D01*
X007200Y007700D01*
X007183Y007702D01*
X007166Y007706D01*
X007150Y007713D01*
X007136Y007723D01*
X007123Y007736D01*
X007113Y007750D01*
X007106Y007766D01*
X007102Y007783D01*
X007100Y007800D01*
X007100Y008400D01*
X007102Y008417D01*
X007106Y008434D01*
X007113Y008450D01*
X007123Y008464D01*
X007136Y008477D01*
X007150Y008487D01*
X007166Y008494D01*
X007183Y008498D01*
X007200Y008500D01*
X007350Y008500D01*
X007400Y008450D01*
X008800Y008450D01*
X008850Y008500D01*
X009000Y008500D01*
X009017Y008498D01*
X009034Y008494D01*
X009050Y008487D01*
X009064Y008477D01*
X009077Y008464D01*
X009087Y008450D01*
X009094Y008434D01*
X009098Y008417D01*
X009100Y008400D01*
X009100Y007800D01*
X009098Y007783D01*
X009094Y007766D01*
X009087Y007750D01*
X009077Y007736D01*
X009064Y007723D01*
X009050Y007713D01*
X009034Y007706D01*
X009017Y007702D01*
X009000Y007700D01*
X009000Y008700D02*
X008850Y008700D01*
X008800Y008750D01*
X007400Y008750D01*
X007350Y008700D01*
X007200Y008700D01*
X007183Y008702D01*
X007166Y008706D01*
X007150Y008713D01*
X007136Y008723D01*
X007123Y008736D01*
X007113Y008750D01*
X007106Y008766D01*
X007102Y008783D01*
X007100Y008800D01*
X007100Y009400D01*
X007102Y009417D01*
X007106Y009434D01*
X007113Y009450D01*
X007123Y009464D01*
X007136Y009477D01*
X007150Y009487D01*
X007166Y009494D01*
X007183Y009498D01*
X007200Y009500D01*
X007350Y009500D01*
X007400Y009450D01*
X008800Y009450D01*
X008850Y009500D01*
X009000Y009500D01*
X009017Y009498D01*
X009034Y009494D01*
X009050Y009487D01*
X009064Y009477D01*
X009077Y009464D01*
X009087Y009450D01*
X009094Y009434D01*
X009098Y009417D01*
X009100Y009400D01*
X009100Y008800D01*
X009098Y008783D01*
X009094Y008766D01*
X009087Y008750D01*
X009077Y008736D01*
X009064Y008723D01*
X009050Y008713D01*
X009034Y008706D01*
X009017Y008702D01*
X009000Y008700D01*
X006050Y009900D02*
X006050Y006300D01*
X004750Y006300D01*
X003450Y006300D01*
X003450Y006500D01*
X004750Y006500D01*
X004750Y006300D01*
X004850Y006800D02*
X004850Y007400D01*
X003350Y007400D01*
X003350Y006800D01*
X004850Y006800D01*
X004850Y007800D02*
X004850Y008400D01*
X003350Y008400D01*
X003350Y007800D01*
X004850Y007800D01*
X004850Y008800D02*
X004850Y009400D01*
X003350Y009400D01*
X003350Y008800D01*
X004850Y008800D01*
X004750Y009700D02*
X004750Y009900D01*
X003450Y009900D01*
X002150Y009900D01*
X002150Y006300D01*
X003450Y006300D01*
X003450Y009700D02*
X004750Y009700D01*
X004750Y009900D02*
X006050Y009900D01*
X003450Y009900D02*
X003450Y009700D01*
X013350Y013100D02*
X013600Y012850D01*
X014100Y012850D01*
X014350Y013100D01*
X014600Y012850D01*
X015100Y012850D01*
X015350Y013100D01*
X015350Y013600D01*
X015100Y013850D01*
X014600Y013850D01*
X014350Y013600D01*
X014350Y013100D01*
X014350Y013600D02*
X014100Y013850D01*
X013600Y013850D01*
X013350Y013600D01*
X013350Y013100D01*
X015850Y013100D02*
X016100Y012850D01*
X016600Y012850D01*
X016850Y013100D01*
X017100Y012850D01*
X017600Y012850D01*
X017850Y013100D01*
X017850Y013600D01*
X017600Y013850D01*
X017100Y013850D01*
X016850Y013600D01*
X016850Y013100D01*
X016850Y013600D02*
X016600Y013850D01*
X016100Y013850D01*
X015850Y013600D01*
X015850Y013100D01*
D14*
X009175Y009100D03*
X009175Y008100D03*
X009175Y007100D03*
X007025Y007100D03*
X007025Y008100D03*
X007025Y009100D03*
D15*
X007711Y009175D02*
X007861Y009325D01*
X007861Y008875D01*
X007711Y008875D02*
X008011Y008875D01*
X008171Y008950D02*
X008471Y009250D01*
X008471Y008950D01*
X008396Y008875D01*
X008246Y008875D01*
X008171Y008950D01*
X008171Y009250D01*
X008246Y009325D01*
X008396Y009325D01*
X008471Y009250D01*
X008631Y009325D02*
X008631Y008875D01*
X008631Y009025D02*
X008857Y009175D01*
X008631Y009025D02*
X008857Y008875D01*
X008631Y008325D02*
X008631Y007875D01*
X008631Y008025D02*
X008857Y008175D01*
X008631Y008025D02*
X008857Y007875D01*
X008471Y007950D02*
X008471Y008250D01*
X008171Y007950D01*
X008246Y007875D01*
X008396Y007875D01*
X008471Y007950D01*
X008171Y007950D02*
X008171Y008250D01*
X008246Y008325D01*
X008396Y008325D01*
X008471Y008250D01*
X008011Y007875D02*
X007711Y007875D01*
X007861Y007875D02*
X007861Y008325D01*
X007711Y008175D01*
X007861Y007325D02*
X007861Y006875D01*
X007711Y006875D02*
X008011Y006875D01*
X008171Y006950D02*
X008471Y007250D01*
X008471Y006950D01*
X008396Y006875D01*
X008246Y006875D01*
X008171Y006950D01*
X008171Y007250D01*
X008246Y007325D01*
X008396Y007325D01*
X008471Y007250D01*
X008631Y007325D02*
X008631Y006875D01*
X008631Y007025D02*
X008857Y007175D01*
X008631Y007025D02*
X008857Y006875D01*
X007861Y007325D02*
X007711Y007175D01*
X010125Y007025D02*
X010350Y007025D01*
X010425Y007100D01*
X010425Y007250D01*
X010350Y007325D01*
X010125Y007325D01*
X010125Y006875D01*
X010275Y007025D02*
X010425Y006875D01*
X010585Y006875D02*
X010886Y006875D01*
X010736Y006875D02*
X010736Y007325D01*
X010585Y007175D01*
X010585Y007875D02*
X010886Y008175D01*
X010886Y008250D01*
X010811Y008325D01*
X010660Y008325D01*
X010585Y008250D01*
X010425Y008250D02*
X010425Y008100D01*
X010350Y008025D01*
X010125Y008025D01*
X010125Y007875D02*
X010125Y008325D01*
X010350Y008325D01*
X010425Y008250D01*
X010275Y008025D02*
X010425Y007875D01*
X010585Y007875D02*
X010886Y007875D01*
X010811Y008875D02*
X010660Y008875D01*
X010585Y008950D01*
X010425Y008875D02*
X010275Y009025D01*
X010350Y009025D02*
X010125Y009025D01*
X010125Y008875D02*
X010125Y009325D01*
X010350Y009325D01*
X010425Y009250D01*
X010425Y009100D01*
X010350Y009025D01*
X010585Y009250D02*
X010660Y009325D01*
X010811Y009325D01*
X010886Y009250D01*
X010886Y009175D01*
X010811Y009100D01*
X010886Y009025D01*
X010886Y008950D01*
X010811Y008875D01*
X010811Y009100D02*
X010736Y009100D01*
X011300Y010875D02*
X011450Y010875D01*
X011525Y010950D01*
X011685Y010875D02*
X011986Y010875D01*
X011836Y010875D02*
X011836Y011325D01*
X011685Y011175D01*
X011525Y011250D02*
X011450Y011325D01*
X011300Y011325D01*
X011225Y011250D01*
X011225Y010950D01*
X011300Y010875D01*
X008100Y011100D02*
X006100Y011100D01*
X004100Y011100D02*
X002100Y011100D01*
X002100Y015100D01*
X008100Y015100D01*
X008100Y011100D01*
X001975Y007546D02*
X001975Y007246D01*
X001975Y007396D02*
X001525Y007396D01*
X001675Y007246D01*
X001525Y007086D02*
X001975Y007086D01*
X001825Y006936D01*
X001975Y006785D01*
X001525Y006785D01*
X001600Y006625D02*
X001525Y006550D01*
X001525Y006400D01*
X001600Y006325D01*
X001675Y006325D01*
X001750Y006400D01*
X001750Y006550D01*
X001825Y006625D01*
X001900Y006625D01*
X001975Y006550D01*
X001975Y006400D01*
X001900Y006325D01*
X002100Y005100D02*
X002100Y001100D01*
X004100Y001100D01*
X006100Y001100D02*
X008100Y001100D01*
X008100Y005100D01*
X002100Y005100D01*
X015275Y002735D02*
X015425Y002735D01*
X015350Y002735D02*
X015350Y002285D01*
X015275Y002285D02*
X015425Y002285D01*
X015582Y002360D02*
X015657Y002285D01*
X015807Y002285D01*
X015882Y002360D01*
X016042Y002285D02*
X016343Y002585D01*
X016343Y002660D01*
X016268Y002735D01*
X016117Y002735D01*
X016042Y002660D01*
X015882Y002660D02*
X015807Y002735D01*
X015657Y002735D01*
X015582Y002660D01*
X015582Y002360D01*
X016042Y002285D02*
X016343Y002285D01*
D16*
X013200Y010800D02*
X013200Y011100D01*
X013200Y011400D01*
X013000Y011400D02*
X013000Y011100D01*
X013000Y010800D01*
D17*
X004675Y009100D03*
X004425Y009100D03*
X004175Y009100D03*
X004175Y008100D03*
X004425Y008100D03*
X004675Y008100D03*
X004675Y007100D03*
X004425Y007100D03*
X004175Y007100D03*
D18*
X012754Y007057D02*
X013070Y007057D01*
X012965Y007267D01*
X012965Y007372D01*
X013070Y007477D01*
X013280Y007477D01*
X013385Y007372D01*
X013385Y007162D01*
X013280Y007057D01*
X013280Y006833D02*
X013175Y006833D01*
X013070Y006728D01*
X013070Y006517D01*
X012965Y006412D01*
X012860Y006412D01*
X012754Y006517D01*
X012754Y006728D01*
X012860Y006833D01*
X012965Y006833D01*
X013070Y006728D01*
X013280Y006833D02*
X013385Y006728D01*
X013385Y006517D01*
X013280Y006412D01*
X013175Y006412D01*
X013070Y006517D01*
X012754Y006188D02*
X012754Y005768D01*
X013385Y005768D01*
X013070Y005768D02*
X013070Y005978D01*
X013280Y005544D02*
X013385Y005438D01*
X013385Y005228D01*
X013280Y005123D01*
X012860Y005123D01*
X012754Y005228D01*
X012754Y005438D01*
X012860Y005544D01*
X012860Y004899D02*
X013070Y004899D01*
X013175Y004794D01*
X013175Y004479D01*
X013385Y004479D02*
X012754Y004479D01*
X012754Y004794D01*
X012860Y004899D01*
X012754Y007057D02*
X012754Y007477D01*
X012860Y007701D02*
X012965Y007701D01*
X013070Y007806D01*
X013070Y008122D01*
X013280Y008122D02*
X012860Y008122D01*
X012754Y008017D01*
X012754Y007806D01*
X012860Y007701D01*
X013280Y007701D02*
X013385Y007806D01*
X013385Y008017D01*
X013280Y008122D01*
X013385Y008346D02*
X013385Y008766D01*
X013385Y008556D02*
X012754Y008556D01*
X012965Y008346D01*
X013175Y008990D02*
X013175Y009306D01*
X013070Y009411D01*
X012860Y009411D01*
X012754Y009306D01*
X012754Y008990D01*
X013385Y008990D01*
D19*
X001830Y012120D02*
X001830Y012273D01*
X001830Y012197D02*
X001370Y012197D01*
X001370Y012273D02*
X001370Y012120D01*
X001370Y012427D02*
X001370Y012657D01*
X001446Y012734D01*
X001753Y012734D01*
X001830Y012657D01*
X001830Y012427D01*
X001370Y012427D01*
X001446Y012887D02*
X001753Y012887D01*
X001830Y012964D01*
X001830Y013118D01*
X001753Y013194D01*
X001830Y013348D02*
X001830Y013655D01*
X001830Y013501D02*
X001370Y013501D01*
X001523Y013348D01*
X001446Y013194D02*
X001370Y013118D01*
X001370Y012964D01*
X001446Y012887D01*
X001446Y003905D02*
X001370Y003828D01*
X001370Y003674D01*
X001446Y003598D01*
X001446Y003444D02*
X001370Y003368D01*
X001370Y003214D01*
X001446Y003137D01*
X001753Y003137D01*
X001830Y003214D01*
X001830Y003368D01*
X001753Y003444D01*
X001830Y003598D02*
X001523Y003905D01*
X001446Y003905D01*
X001830Y003905D02*
X001830Y003598D01*
X001753Y002984D02*
X001446Y002984D01*
X001370Y002907D01*
X001370Y002677D01*
X001830Y002677D01*
X001830Y002907D01*
X001753Y002984D01*
X001830Y002523D02*
X001830Y002370D01*
X001830Y002447D02*
X001370Y002447D01*
X001370Y002523D02*
X001370Y002370D01*
D20*
X009236Y004618D03*
X009236Y004625D03*
X009236Y004631D03*
X009236Y004637D03*
X009236Y004643D03*
X009236Y004649D03*
X009236Y004655D03*
X009236Y004661D03*
X009236Y004668D03*
X009236Y004674D03*
X009236Y004680D03*
X009236Y004686D03*
X009236Y004692D03*
X009236Y004698D03*
X009236Y004704D03*
X009236Y004711D03*
X009236Y004717D03*
X009236Y004723D03*
X009236Y004729D03*
X009236Y004735D03*
X009236Y004741D03*
X009236Y004747D03*
X009236Y004754D03*
X009236Y004760D03*
X009236Y004766D03*
X009236Y004772D03*
X009236Y004778D03*
X009236Y004784D03*
X009236Y004790D03*
X009236Y004797D03*
X009236Y004803D03*
X009236Y005011D03*
X009236Y005018D03*
X009236Y005024D03*
X009236Y005030D03*
X009236Y005036D03*
X009236Y005042D03*
X009236Y005048D03*
X009236Y005054D03*
X009236Y005061D03*
X009236Y005067D03*
X009236Y005073D03*
X009236Y005079D03*
X009236Y005085D03*
X009236Y005091D03*
X009236Y005097D03*
X009236Y005104D03*
X009236Y005110D03*
X009236Y005116D03*
X009236Y005122D03*
X009236Y005128D03*
X009236Y005134D03*
X009236Y005140D03*
X009236Y005147D03*
X009236Y005153D03*
X009236Y005159D03*
X009236Y005165D03*
X009236Y005171D03*
X009236Y005177D03*
X009236Y005183D03*
X009236Y005190D03*
X009236Y005196D03*
X009530Y005196D03*
X009530Y005190D03*
X009530Y005183D03*
X009530Y005177D03*
X009530Y005171D03*
X009530Y005165D03*
X009530Y005159D03*
X009530Y005153D03*
X009530Y005147D03*
X009530Y005140D03*
X009530Y005134D03*
X009530Y005128D03*
X009530Y005122D03*
X009530Y005116D03*
X009530Y005110D03*
X009530Y005104D03*
X009530Y005097D03*
X009530Y005091D03*
X009530Y005085D03*
X009530Y005079D03*
X009530Y005073D03*
X009530Y005067D03*
X009530Y005061D03*
X009530Y005054D03*
X009530Y005048D03*
X009530Y005042D03*
X009530Y005036D03*
X009530Y005030D03*
X009530Y005024D03*
X009530Y005018D03*
X009530Y005011D03*
X009530Y004803D03*
X009530Y004797D03*
X009530Y004790D03*
X009530Y004784D03*
X009530Y004778D03*
X009530Y004772D03*
X009530Y004766D03*
X009530Y004760D03*
X009530Y004754D03*
X009530Y004747D03*
X009530Y004741D03*
X009530Y004735D03*
X009530Y004729D03*
X009530Y004723D03*
X009530Y004717D03*
X009530Y004711D03*
X009530Y004704D03*
X009530Y004698D03*
X009530Y004692D03*
X009530Y004686D03*
X009530Y004680D03*
X009530Y004674D03*
X009530Y004668D03*
X009530Y004661D03*
X009530Y004655D03*
X009530Y004649D03*
X009530Y004643D03*
X009530Y004637D03*
X009530Y004631D03*
X009530Y004625D03*
X009530Y004618D03*
X009825Y002973D03*
D21*
X009079Y003329D03*
X009091Y004809D03*
X009675Y004809D03*
D22*
X009687Y004815D03*
X009079Y004815D03*
X009386Y004091D03*
X009804Y003415D03*
D23*
X009070Y004821D03*
D24*
X009693Y004821D03*
D25*
X009702Y004827D03*
X009064Y004827D03*
X009389Y004078D03*
X008959Y003667D03*
D26*
X009807Y003673D03*
X009709Y004833D03*
X009058Y004833D03*
D27*
X009051Y004840D03*
X009715Y004840D03*
X009383Y004072D03*
X009131Y003765D03*
X008910Y003581D03*
X008910Y003544D03*
X008910Y003532D03*
X008910Y003519D03*
X008910Y003507D03*
X008910Y003495D03*
X008947Y003421D03*
X009831Y003421D03*
X009868Y003513D03*
D28*
X009862Y003507D03*
X009862Y003519D03*
X009862Y003483D03*
X009862Y003556D03*
X009862Y003575D03*
X009862Y003605D03*
X009862Y003618D03*
X009838Y003661D03*
X008935Y003661D03*
X008916Y003618D03*
X008916Y003612D03*
X008916Y003605D03*
X008910Y003587D03*
X008916Y003575D03*
X008916Y003562D03*
X008910Y003526D03*
X008910Y003513D03*
X008910Y003489D03*
X008916Y003483D03*
X008916Y003470D03*
X008916Y003464D03*
X008916Y003458D03*
X009045Y004846D03*
D29*
X009718Y004846D03*
X009865Y003593D03*
X009865Y003587D03*
X009865Y003581D03*
X009865Y003569D03*
X009865Y003550D03*
X009865Y003544D03*
X009865Y003538D03*
X009865Y003532D03*
X009865Y003526D03*
X009865Y003501D03*
X009865Y003495D03*
X009865Y003489D03*
X009859Y003464D03*
X009834Y003427D03*
X008938Y003427D03*
X008913Y003501D03*
X008913Y003538D03*
X008913Y003550D03*
X008907Y003556D03*
X008907Y003569D03*
X008913Y003593D03*
D30*
X008913Y003599D03*
X008919Y003630D03*
X008932Y003655D03*
X008913Y003476D03*
X009859Y003476D03*
X009859Y003470D03*
X009859Y003458D03*
X009859Y003599D03*
X009859Y003612D03*
X009859Y003624D03*
X009724Y004852D03*
X009042Y004852D03*
D31*
X009036Y004858D03*
X009730Y004864D03*
X008926Y003648D03*
X008919Y003452D03*
X008919Y003440D03*
X008926Y003433D03*
X009853Y003433D03*
X009853Y003440D03*
D32*
X009856Y003446D03*
X009856Y003452D03*
X009856Y003630D03*
X009856Y003636D03*
X009856Y003642D03*
X009850Y003655D03*
X008922Y003642D03*
X008916Y003636D03*
X008916Y003624D03*
X008922Y003446D03*
X009727Y004858D03*
D33*
X009033Y004864D03*
X009850Y003648D03*
D34*
X009736Y004870D03*
X009030Y004870D03*
D35*
X009027Y004876D03*
X009739Y004876D03*
D36*
X009742Y004883D03*
X009024Y004883D03*
D37*
X009021Y004889D03*
X009745Y004889D03*
X009745Y004895D03*
D38*
X009749Y004901D03*
X009018Y004895D03*
D39*
X009015Y004901D03*
X009752Y004907D03*
D40*
X009755Y004913D03*
X009011Y004913D03*
X009011Y004907D03*
D41*
X009008Y004919D03*
X009758Y004919D03*
X009758Y004926D03*
D42*
X009761Y004932D03*
X009761Y004938D03*
X009005Y004932D03*
X009005Y004926D03*
D43*
X009002Y004938D03*
X009002Y004944D03*
X009764Y004944D03*
X009764Y004950D03*
D44*
X009767Y004956D03*
X009767Y004962D03*
X008999Y004956D03*
X008999Y004950D03*
D45*
X008996Y004962D03*
X008996Y004969D03*
X009770Y004969D03*
X009770Y004975D03*
D46*
X009773Y004981D03*
X009773Y004987D03*
X009773Y004993D03*
X008993Y004987D03*
X008993Y004981D03*
X008993Y004975D03*
D47*
X008990Y004993D03*
X008990Y004999D03*
X008990Y005005D03*
X009776Y005005D03*
X009776Y004999D03*
D48*
X009392Y004189D03*
X009386Y004183D03*
X009386Y004170D03*
X009386Y004164D03*
X009386Y004152D03*
X009386Y004146D03*
X009386Y004140D03*
X008956Y004072D03*
X009816Y004072D03*
X008790Y005011D03*
D49*
X009973Y005011D03*
D50*
X009982Y005018D03*
X009386Y004238D03*
X009386Y004201D03*
X008778Y005018D03*
X008778Y005939D03*
X008956Y003004D03*
X009816Y003004D03*
D51*
X009825Y004084D03*
X009389Y004244D03*
X009389Y004250D03*
X009389Y004281D03*
X008953Y004084D03*
X008775Y005024D03*
X009985Y005939D03*
D52*
X009988Y005933D03*
X009994Y005927D03*
X009994Y005036D03*
X009994Y005030D03*
X009988Y005024D03*
X009386Y004275D03*
X009386Y004269D03*
X009392Y004263D03*
X009386Y004256D03*
X008950Y004091D03*
X009822Y004091D03*
X008772Y005030D03*
X008772Y005927D03*
X008772Y005933D03*
D53*
X008769Y005920D03*
X008769Y005042D03*
X008769Y005036D03*
X009389Y004287D03*
X009997Y005042D03*
X009997Y005048D03*
X009997Y005908D03*
X009997Y005914D03*
X009997Y005920D03*
D54*
X010000Y005902D03*
X010000Y005896D03*
X010000Y005890D03*
X010000Y005884D03*
X010000Y005877D03*
X010000Y005871D03*
X010000Y005865D03*
X010000Y005859D03*
X010000Y005853D03*
X010000Y005847D03*
X010000Y005841D03*
X010000Y005834D03*
X010000Y005828D03*
X010000Y005822D03*
X010000Y005816D03*
X010000Y005810D03*
X010000Y005804D03*
X010000Y005798D03*
X010000Y005791D03*
X010000Y005785D03*
X010000Y005779D03*
X010000Y005773D03*
X010000Y005767D03*
X010000Y005761D03*
X010000Y005755D03*
X010000Y005749D03*
X010000Y005742D03*
X010000Y005736D03*
X010000Y005730D03*
X010000Y005724D03*
X010000Y005718D03*
X010000Y005712D03*
X010000Y005706D03*
X010000Y005699D03*
X010000Y005693D03*
X010000Y005687D03*
X010000Y005681D03*
X010000Y005675D03*
X010000Y005669D03*
X010000Y005663D03*
X010000Y005656D03*
X010000Y005650D03*
X010000Y005644D03*
X010000Y005638D03*
X010000Y005632D03*
X010000Y005626D03*
X010000Y005620D03*
X010000Y005613D03*
X010000Y005607D03*
X010000Y005601D03*
X010000Y005595D03*
X010000Y005589D03*
X010000Y005583D03*
X010000Y005577D03*
X010000Y005570D03*
X010000Y005564D03*
X010000Y005558D03*
X010000Y005552D03*
X010000Y005546D03*
X010000Y005540D03*
X010000Y005534D03*
X010000Y005527D03*
X010000Y005521D03*
X010000Y005515D03*
X010000Y005509D03*
X010000Y005503D03*
X010000Y005497D03*
X010000Y005491D03*
X010000Y005484D03*
X010000Y005478D03*
X010000Y005472D03*
X010000Y005466D03*
X010000Y005460D03*
X010000Y005454D03*
X010000Y005448D03*
X010000Y005441D03*
X010000Y005435D03*
X010000Y005429D03*
X010000Y005423D03*
X010000Y005417D03*
X010000Y005411D03*
X010000Y005405D03*
X010000Y005398D03*
X010000Y005392D03*
X010000Y005386D03*
X010000Y005380D03*
X010000Y005374D03*
X010000Y005368D03*
X010000Y005362D03*
X010000Y005355D03*
X010000Y005349D03*
X010000Y005343D03*
X010000Y005337D03*
X010000Y005331D03*
X010000Y005325D03*
X010000Y005319D03*
X010000Y005312D03*
X010000Y005306D03*
X010000Y005300D03*
X010000Y005294D03*
X010000Y005288D03*
X010000Y005282D03*
X010000Y005276D03*
X010000Y005269D03*
X010000Y005263D03*
X010000Y005257D03*
X010000Y005251D03*
X010000Y005245D03*
X010000Y005239D03*
X010000Y005233D03*
X010000Y005226D03*
X010000Y005220D03*
X010000Y005214D03*
X010000Y005208D03*
X010000Y005202D03*
X010000Y005196D03*
X010000Y005190D03*
X010000Y005183D03*
X010000Y005177D03*
X010000Y005171D03*
X010000Y005165D03*
X010000Y005159D03*
X010000Y005153D03*
X010000Y005147D03*
X010000Y005140D03*
X010000Y005134D03*
X010000Y005128D03*
X010000Y005122D03*
X010000Y005116D03*
X010000Y005110D03*
X010000Y005104D03*
X010000Y005097D03*
X010000Y005091D03*
X010000Y005085D03*
X010000Y005079D03*
X010000Y005073D03*
X010000Y005067D03*
X010000Y005061D03*
X010000Y005054D03*
X009386Y004299D03*
X009386Y004293D03*
X008766Y005048D03*
X008766Y005054D03*
X008766Y005061D03*
X008766Y005067D03*
X008766Y005073D03*
X008766Y005079D03*
X008766Y005085D03*
X008766Y005091D03*
X008766Y005097D03*
X008766Y005104D03*
X008766Y005110D03*
X008766Y005116D03*
X008766Y005122D03*
X008766Y005128D03*
X008766Y005134D03*
X008766Y005140D03*
X008766Y005147D03*
X008766Y005153D03*
X008766Y005159D03*
X008766Y005165D03*
X008766Y005171D03*
X008766Y005177D03*
X008766Y005183D03*
X008766Y005190D03*
X008766Y005196D03*
X008766Y005202D03*
X008766Y005208D03*
X008766Y005214D03*
X008766Y005220D03*
X008766Y005226D03*
X008766Y005233D03*
X008766Y005239D03*
X008766Y005245D03*
X008766Y005251D03*
X008766Y005257D03*
X008766Y005263D03*
X008766Y005269D03*
X008766Y005276D03*
X008766Y005282D03*
X008766Y005288D03*
X008766Y005294D03*
X008766Y005300D03*
X008766Y005306D03*
X008766Y005312D03*
X008766Y005319D03*
X008766Y005325D03*
X008766Y005331D03*
X008766Y005337D03*
X008766Y005343D03*
X008766Y005349D03*
X008766Y005355D03*
X008766Y005362D03*
X008766Y005368D03*
X008766Y005374D03*
X008766Y005380D03*
X008766Y005386D03*
X008766Y005392D03*
X008766Y005398D03*
X008766Y005405D03*
X008766Y005411D03*
X008766Y005417D03*
X008766Y005423D03*
X008766Y005429D03*
X008766Y005435D03*
X008766Y005441D03*
X008766Y005448D03*
X008766Y005454D03*
X008766Y005460D03*
X008766Y005466D03*
X008766Y005472D03*
X008766Y005478D03*
X008766Y005484D03*
X008766Y005491D03*
X008766Y005497D03*
X008766Y005503D03*
X008766Y005509D03*
X008766Y005515D03*
X008766Y005521D03*
X008766Y005527D03*
X008766Y005534D03*
X008766Y005540D03*
X008766Y005546D03*
X008766Y005552D03*
X008766Y005558D03*
X008766Y005564D03*
X008766Y005570D03*
X008766Y005577D03*
X008766Y005583D03*
X008766Y005589D03*
X008766Y005595D03*
X008766Y005601D03*
X008766Y005607D03*
X008766Y005613D03*
X008766Y005620D03*
X008766Y005626D03*
X008766Y005632D03*
X008766Y005638D03*
X008766Y005644D03*
X008766Y005650D03*
X008766Y005656D03*
X008766Y005663D03*
X008766Y005669D03*
X008766Y005675D03*
X008766Y005681D03*
X008766Y005687D03*
X008766Y005693D03*
X008766Y005699D03*
X008766Y005706D03*
X008766Y005712D03*
X008766Y005718D03*
X008766Y005724D03*
X008766Y005730D03*
X008766Y005736D03*
X008766Y005742D03*
X008766Y005749D03*
X008766Y005755D03*
X008766Y005761D03*
X008766Y005767D03*
X008766Y005773D03*
X008766Y005779D03*
X008766Y005785D03*
X008766Y005791D03*
X008766Y005798D03*
X008766Y005804D03*
X008766Y005810D03*
X008766Y005816D03*
X008766Y005822D03*
X008766Y005828D03*
X008766Y005834D03*
X008766Y005841D03*
X008766Y005847D03*
X008766Y005853D03*
X008766Y005859D03*
X008766Y005865D03*
X008766Y005871D03*
X008766Y005877D03*
X008766Y005884D03*
X008766Y005890D03*
X008766Y005896D03*
X008766Y005902D03*
X008766Y005908D03*
X008766Y005914D03*
X008956Y002997D03*
X009822Y002997D03*
D55*
X008956Y003010D03*
X009386Y004195D03*
X009386Y004213D03*
X009386Y004232D03*
X008784Y005945D03*
D56*
X009979Y005945D03*
X009389Y004226D03*
X009389Y004220D03*
X009389Y004207D03*
X008953Y004078D03*
X009825Y004078D03*
X009819Y003010D03*
D57*
X009383Y005951D03*
X009383Y005957D03*
D58*
X009380Y005963D03*
X009380Y005970D03*
D59*
X009383Y005976D03*
D60*
X009380Y005982D03*
X009380Y005988D03*
D61*
X009383Y005994D03*
D62*
X009380Y006000D03*
D63*
X009383Y006006D03*
D64*
X009380Y006013D03*
D65*
X009383Y006019D03*
D66*
X009380Y006025D03*
D67*
X009383Y006031D03*
D68*
X009383Y006037D03*
D69*
X009380Y006043D03*
D70*
X009380Y006049D03*
D71*
X009383Y006056D03*
D72*
X009383Y006062D03*
D73*
X009380Y006068D03*
D74*
X009380Y006074D03*
D75*
X009380Y006080D03*
D76*
X009380Y006086D03*
D77*
X009383Y006092D03*
D78*
X009383Y006099D03*
D79*
X009380Y006105D03*
D80*
X009380Y006111D03*
D81*
X009380Y006117D03*
D82*
X009383Y006123D03*
X009389Y004048D03*
D83*
X009389Y003999D03*
X009383Y006129D03*
D84*
X009383Y006135D03*
X009389Y003980D03*
X009389Y003974D03*
D85*
X009380Y006142D03*
D86*
X009383Y006148D03*
X009389Y003919D03*
D87*
X009389Y003876D03*
X009383Y006154D03*
D88*
X009257Y004244D03*
X009239Y004134D03*
X009226Y004127D03*
X009202Y004115D03*
X009177Y004103D03*
X009061Y004103D03*
X008926Y004189D03*
X008889Y003839D03*
X008784Y003685D03*
X008772Y003685D03*
X008760Y003685D03*
X008680Y003667D03*
X008668Y003667D03*
X008649Y003661D03*
X008643Y003655D03*
X008668Y003421D03*
X008692Y003415D03*
X008790Y003397D03*
X008864Y003280D03*
X009208Y003034D03*
X009171Y002967D03*
X009140Y002979D03*
X009110Y002997D03*
X009011Y002948D03*
X008956Y002911D03*
X008956Y002905D03*
X008932Y002899D03*
X008901Y002924D03*
X008815Y003016D03*
X009245Y003133D03*
X009251Y003157D03*
X009282Y003243D03*
X009282Y003354D03*
X009190Y003569D03*
X009306Y003747D03*
X009319Y003747D03*
X009349Y003753D03*
X009417Y003753D03*
X009454Y003741D03*
X009460Y003747D03*
X009577Y004109D03*
X009558Y004121D03*
X009601Y004103D03*
X009693Y004084D03*
X009834Y004189D03*
X009847Y004189D03*
X009890Y004152D03*
X009927Y003913D03*
X009908Y003796D03*
X009957Y003698D03*
X009994Y003685D03*
X010099Y003667D03*
X010135Y003421D03*
X010080Y003415D03*
X010068Y003415D03*
X009920Y002973D03*
X009853Y002899D03*
X009841Y002899D03*
X009626Y002979D03*
X009613Y002967D03*
X009570Y003028D03*
X009503Y003206D03*
D89*
X009607Y002979D03*
X009841Y002905D03*
X009165Y002973D03*
X009165Y002979D03*
X008932Y002905D03*
X008649Y003427D03*
D90*
X008935Y002911D03*
X009420Y003759D03*
X009954Y003691D03*
X009844Y004183D03*
X008935Y004183D03*
D91*
X008932Y004170D03*
X009841Y004170D03*
X009834Y002911D03*
D92*
X008938Y002918D03*
X008938Y002924D03*
D93*
X009838Y002918D03*
D94*
X009838Y002924D03*
X009623Y002991D03*
X009150Y002991D03*
D95*
X009144Y003004D03*
X009144Y003010D03*
X008935Y002930D03*
X009838Y004158D03*
D96*
X009745Y004121D03*
X010016Y003685D03*
X010120Y003427D03*
X009985Y003397D03*
X009610Y002973D03*
X008990Y002930D03*
X008806Y003397D03*
X008738Y003409D03*
D97*
X008938Y004158D03*
X009632Y003004D03*
X009834Y002930D03*
D98*
X008944Y002936D03*
X009834Y004152D03*
D99*
X009838Y004146D03*
X008941Y004152D03*
X008935Y004146D03*
X009635Y003010D03*
X009831Y002936D03*
D100*
X009834Y002942D03*
X008944Y002942D03*
D101*
X008944Y002948D03*
D102*
X009831Y002948D03*
X009831Y004140D03*
D103*
X008941Y004134D03*
X008947Y002954D03*
D104*
X009828Y002954D03*
X009834Y004134D03*
D105*
X009834Y004121D03*
X008944Y004127D03*
X008950Y002961D03*
X009828Y002961D03*
D106*
X008950Y002973D03*
X008944Y002967D03*
D107*
X009825Y002967D03*
X008947Y004121D03*
D108*
X009828Y004109D03*
X008950Y002979D03*
D109*
X009825Y002979D03*
X008947Y004115D03*
D110*
X008950Y004103D03*
X008950Y002985D03*
X009822Y002985D03*
D111*
X009616Y002985D03*
X009156Y002985D03*
X008935Y004177D03*
X009844Y004177D03*
D112*
X009825Y004097D03*
X009389Y004312D03*
X009389Y004318D03*
X009389Y004324D03*
X009389Y004330D03*
X009389Y004336D03*
X008953Y004097D03*
X008953Y002991D03*
D113*
X009822Y002991D03*
X009386Y004306D03*
X009386Y004342D03*
D114*
X008938Y004164D03*
X009841Y004164D03*
X009626Y002997D03*
X009153Y002997D03*
D115*
X009008Y003016D03*
X009383Y004109D03*
D116*
X009699Y003219D03*
X009767Y003016D03*
X009005Y003022D03*
D117*
X009067Y003194D03*
X009079Y003231D03*
X009079Y003243D03*
X009693Y003237D03*
X009693Y003231D03*
X009699Y003225D03*
X009712Y003194D03*
X009712Y003188D03*
X009718Y003176D03*
X009773Y003028D03*
X009767Y003022D03*
D118*
X009733Y003157D03*
X009727Y003163D03*
X009721Y003169D03*
X009715Y003182D03*
X009702Y003200D03*
X009082Y003237D03*
X009070Y003200D03*
X009064Y003188D03*
X009051Y003176D03*
X009058Y003169D03*
X009039Y003151D03*
X009002Y003034D03*
X009002Y003028D03*
D119*
X009042Y003145D03*
X009042Y003157D03*
X009048Y003163D03*
X009085Y003249D03*
X009693Y003249D03*
X009693Y003243D03*
X009693Y003255D03*
X009736Y003151D03*
X009736Y003145D03*
X009736Y003139D03*
X009773Y003034D03*
X009736Y003691D03*
D120*
X009733Y003698D03*
X009389Y004103D03*
X009045Y003698D03*
X009082Y003255D03*
X009039Y003139D03*
X009033Y003133D03*
X009027Y003120D03*
X009027Y003114D03*
X009021Y003108D03*
X008996Y003047D03*
X009002Y003040D03*
X009739Y003133D03*
X009758Y003102D03*
X009776Y003047D03*
X009776Y003040D03*
D121*
X009782Y003053D03*
X009770Y003071D03*
X009770Y003077D03*
X009764Y003090D03*
X009727Y003372D03*
X009739Y003384D03*
X009727Y003710D03*
X009721Y003716D03*
X009058Y003722D03*
X009027Y003397D03*
X009033Y003390D03*
X009039Y003384D03*
X009045Y003378D03*
X009045Y003372D03*
X009082Y003268D03*
X009015Y003096D03*
X009015Y003090D03*
X009008Y003077D03*
X009002Y003071D03*
X008996Y003065D03*
X008996Y003053D03*
D122*
X008996Y003059D03*
X009015Y003083D03*
X009082Y003274D03*
X009082Y003292D03*
X009058Y003354D03*
X009051Y003360D03*
X009721Y003360D03*
X009752Y003397D03*
X009721Y003722D03*
X009776Y003065D03*
D123*
X009779Y003059D03*
X009693Y003274D03*
X009693Y003280D03*
X009724Y003366D03*
X009085Y003280D03*
X009079Y003286D03*
X009054Y003366D03*
X009048Y003710D03*
X009054Y003716D03*
D124*
X009042Y003704D03*
X009079Y003261D03*
X009030Y003126D03*
X009018Y003102D03*
X009693Y003261D03*
X009693Y003268D03*
X009730Y003378D03*
X009742Y003390D03*
X009749Y003126D03*
X009749Y003120D03*
X009749Y003114D03*
X009755Y003108D03*
X009761Y003096D03*
X009767Y003083D03*
X009730Y003704D03*
D125*
X009696Y003212D03*
X009702Y003206D03*
X009082Y003225D03*
X009076Y003219D03*
X009076Y003212D03*
X009076Y003206D03*
X009064Y003182D03*
D126*
X009693Y003286D03*
X009699Y003292D03*
X009693Y003304D03*
X009712Y003347D03*
X009718Y003354D03*
X009761Y003685D03*
X009706Y003734D03*
X009067Y003728D03*
X009024Y003691D03*
D127*
X009015Y003685D03*
X009070Y003734D03*
X009076Y003747D03*
X009389Y004097D03*
X009702Y003728D03*
X009702Y003341D03*
X009696Y003298D03*
X009082Y003298D03*
X009082Y003304D03*
X009082Y003311D03*
X009076Y003341D03*
X009064Y003347D03*
D128*
X009073Y003335D03*
X009085Y003317D03*
X009693Y003317D03*
X009693Y003311D03*
X009699Y003335D03*
X009773Y003403D03*
X009706Y003741D03*
D129*
X009082Y003323D03*
D130*
X008987Y003409D03*
X009091Y003753D03*
X009785Y003679D03*
X009693Y003323D03*
D131*
X009696Y003329D03*
X009696Y003747D03*
X009076Y003741D03*
X009002Y003403D03*
D132*
X008972Y003415D03*
X009389Y004084D03*
X009795Y003409D03*
D133*
X009865Y003562D03*
D134*
X009822Y003667D03*
X008962Y003673D03*
D135*
X008990Y003679D03*
X009678Y003753D03*
X009678Y003759D03*
D136*
X009663Y003765D03*
X009110Y003759D03*
D137*
X009392Y003771D03*
D138*
X009383Y003777D03*
X009389Y003900D03*
X009389Y003906D03*
D139*
X009386Y003894D03*
X009386Y003784D03*
D140*
X009389Y003790D03*
X009389Y003888D03*
D141*
X009386Y003882D03*
X009386Y003796D03*
D142*
X009386Y003802D03*
X009386Y003814D03*
D143*
X009389Y003808D03*
D144*
X009392Y003820D03*
X009386Y003827D03*
X009386Y003870D03*
D145*
X009389Y003863D03*
X009389Y003833D03*
D146*
X009386Y003839D03*
X009386Y003857D03*
D147*
X009389Y003851D03*
X009389Y003845D03*
D148*
X009386Y003913D03*
D149*
X009386Y003925D03*
X009386Y003931D03*
D150*
X009389Y003937D03*
D151*
X009389Y003943D03*
D152*
X009386Y003949D03*
D153*
X009389Y003956D03*
D154*
X009386Y003962D03*
X009386Y003968D03*
D155*
X009386Y003986D03*
D156*
X009386Y003992D03*
X009386Y004060D03*
D157*
X009389Y004011D03*
X009389Y004005D03*
D158*
X009386Y004017D03*
D159*
X009386Y004023D03*
X009386Y004041D03*
D160*
X009389Y004035D03*
X009389Y004029D03*
D161*
X009386Y004054D03*
D162*
X008956Y004066D03*
D163*
X009540Y004066D03*
D164*
X009825Y004103D03*
D165*
X009389Y004349D03*
X008947Y004109D03*
D166*
X009392Y004115D03*
D167*
X009828Y004115D03*
D168*
X009383Y004121D03*
D169*
X009389Y004127D03*
D170*
X009831Y004127D03*
D171*
X009389Y004134D03*
X009389Y004158D03*
X009389Y004177D03*
D172*
X008944Y004140D03*
M02*
